<mxfile host="app.diagrams.net" modified="2023-06-04T21:14:25.418Z" agent="Mozilla/5.0 (Windows NT 10.0; Win64; x64) AppleWebKit/537.36 (KHTML, like Gecko) Chrome/112.0.0.0 Safari/537.36 OPR/98.0.0.0" version="21.3.7" etag="U1dFSPwldx90U9ZE-Dne" type="github">
  <diagram name="StrÃ¡nka-1" id="LjdzmIXZPdjBEPaZL0FA">
    <mxGraphModel>
      <root>
        <mxCell id="0" />
        <mxCell id="1" parent="0" />
      </root>
    </mxGraphModel>
  </diagram>
</mxfile>
